<svg width="20" height="20" viewBox="0 0 20 20" fill="none" xmlns="http://www.w3.org/2000/svg">
<path d="M3.84999 7.26875C3.81874 9.57811 3.41562 12.7688 1.69687 14.9563C1.57755 15.1055 1.50275 15.2854 1.48106 15.4752C1.45936 15.665 1.49165 15.8571 1.57422 16.0294C1.65678 16.2018 1.78627 16.3473 1.94782 16.4493C2.10937 16.5513 2.29642 16.6057 2.48749 16.6063H3.75396V17.7325C3.75428 18.0023 3.86157 18.2609 4.05231 18.4516C4.24306 18.6424 4.50166 18.7497 4.77141 18.75H17.2549C17.5247 18.7497 17.7833 18.6424 17.974 18.4516C18.1648 18.2609 18.2721 18.0023 18.2724 17.7325C18.2724 17.7325 18.3156 7.63439 18.3187 7.26875H3.84999ZM6.72812 10.7625C6.76923 10.631 6.8516 10.5162 6.96305 10.4351C7.07449 10.3541 7.20907 10.3111 7.34687 10.3125H9.10624L9.67187 8.62188C9.71457 8.49189 9.79724 8.3787 9.90806 8.29845C10.0189 8.21821 10.1522 8.17501 10.2891 8.17501C10.4259 8.17501 10.5592 8.21821 10.67 8.29845C10.7809 8.3787 10.8635 8.49189 10.9062 8.62188L11.45 10.2969L13.2344 10.3125C13.3712 10.3132 13.5044 10.357 13.6149 10.4377C13.7254 10.5184 13.8076 10.632 13.8499 10.7621C13.8921 10.8923 13.8922 11.0325 13.8501 11.1627C13.8081 11.293 13.726 11.4066 13.6156 11.4875L12.1906 12.5219L12.725 14.225C12.7695 14.355 12.7707 14.4958 12.7284 14.6265C12.6862 14.7572 12.6027 14.8707 12.4906 14.95C12.3801 15.0312 12.2465 15.075 12.1094 15.075C11.9722 15.075 11.8387 15.0312 11.7281 14.95L10.3031 13.9156L8.85312 14.95C8.74229 15.0309 8.60867 15.0747 8.47145 15.0749C8.33422 15.0751 8.20045 15.0319 8.08935 14.9513C7.97825 14.8708 7.89554 14.7571 7.85309 14.6266C7.81065 14.4961 7.81066 14.3555 7.85312 14.225L8.39687 12.55L6.96562 11.4875C6.85313 11.4084 6.76922 11.2951 6.72642 11.1645C6.68361 11.0338 6.68421 10.8928 6.72812 10.7625ZM17.6474 17.7325C17.6473 17.8366 17.6059 17.9363 17.5323 18.0099C17.4587 18.0835 17.359 18.1249 17.2549 18.125H4.77141C4.66737 18.1249 4.56762 18.0835 4.49405 18.0099C4.42048 17.9363 4.37909 17.8366 4.37896 17.7325V16.6063H14.1875C14.3758 16.6064 14.5621 16.5676 14.7348 16.4923C14.9074 16.417 15.0626 16.3069 15.1906 16.1688C16.3327 14.892 17.1723 13.3741 17.6469 11.7281L17.6474 11.7262L17.6474 17.7325Z" fill="black"/>
<path d="M3.85 6.64375H18.3187C18.3094 6.13125 18.2813 5.59688 18.2281 5.04375C18.2067 4.7899 18.0908 4.55333 17.9033 4.38087C17.7158 4.20841 17.4704 4.11264 17.2156 4.1125H15.75C15.75 4.1125 15.75 2.52188 15.7469 2.5C15.7342 2.21987 15.6316 1.95127 15.4543 1.73401C15.277 1.51675 15.0344 1.36237 14.7625 1.29375C14.6569 1.26327 14.5474 1.24853 14.4375 1.25C14.0896 1.25049 13.756 1.38893 13.51 1.63496C13.2639 1.881 13.1255 2.21455 13.125 2.5625V4.1125H8.41875C8.41875 4.1125 8.41875 2.50625 8.41563 2.47813C8.39815 2.20237 8.29378 1.93923 8.1175 1.72645C7.94122 1.51368 7.70207 1.3622 7.43438 1.29375C7.32736 1.265 7.21706 1.25029 7.10625 1.25C6.7583 1.25049 6.42475 1.38893 6.17871 1.63496C5.93268 1.881 5.79424 2.21455 5.79375 2.5625V4.1125H4.79688C4.52761 4.11283 4.26948 4.21993 4.07908 4.41033C3.88868 4.60073 3.78158 4.85887 3.78125 5.12813C3.78125 5.15313 3.84375 6.07813 3.85 6.64375ZM13.7531 2.49063C13.7715 2.32179 13.8514 2.16564 13.9777 2.05206C14.104 1.93848 14.2677 1.87544 14.4375 1.875C14.5489 1.87483 14.6585 1.90278 14.7563 1.95625C14.8673 2.01385 14.9605 2.10085 15.0255 2.20775C15.0905 2.31466 15.1249 2.43737 15.125 2.5625V4.1125H14.375V5.63438C14.375 5.71726 14.3421 5.79674 14.2835 5.85535C14.2249 5.91395 14.1454 5.94688 14.0625 5.94688C13.9796 5.94688 13.9001 5.91395 13.8415 5.85535C13.7829 5.79674 13.75 5.71726 13.75 5.63438C13.75 5.63438 13.75 2.51563 13.7531 2.49063ZM6.42812 2.46875C6.45014 2.30447 6.531 2.15375 6.65571 2.04456C6.78041 1.93537 6.9405 1.87512 7.10625 1.875C7.21868 1.87444 7.32942 1.9024 7.42812 1.95625C7.53857 2.01434 7.63101 2.10154 7.69546 2.2084C7.75991 2.31526 7.7939 2.43771 7.79375 2.5625V4.1125H7.04687V5.63438C7.04687 5.71726 7.01395 5.79674 6.95535 5.85535C6.89674 5.91395 6.81725 5.94688 6.73437 5.94688C6.65149 5.94688 6.57201 5.91395 6.5134 5.85535C6.4548 5.79674 6.42187 5.71726 6.42187 5.63438C6.42187 5.63438 6.42187 2.5 6.42812 2.46875Z" fill="black"/>
<path d="M8.99061 12.7406L8.44686 14.4156L8.66874 14.6969L8.48436 14.4438L9.90936 13.4094C10.0201 13.3287 10.1536 13.2852 10.2906 13.2852C10.4276 13.2852 10.5611 13.3287 10.6719 13.4094L12.0969 14.4438L12.1312 14.4156L11.5875 12.7438C11.5455 12.6131 11.5455 12.4726 11.5875 12.342C11.6296 12.2114 11.7115 12.0972 11.8219 12.0156L13.2469 10.9813L13.2344 10.9375H11.475C11.3377 10.9385 11.2037 10.8957 11.0925 10.8153C10.9812 10.735 10.8984 10.6212 10.8562 10.4906L10.3125 8.81563C10.3094 8.80625 10.3062 8.8 10.2906 8.8L9.72186 10.4906C9.67995 10.6208 9.59771 10.7343 9.48703 10.8146C9.37636 10.8949 9.243 10.938 9.10624 10.9375H7.34686L7.33124 10.9813L8.75624 12.0156C8.86686 12.0962 8.94912 12.2098 8.99122 12.34C9.03332 12.4703 9.03311 12.6105 8.99061 12.7406Z" fill="black"/>
</svg>
