<svg width="20" height="20" viewBox="0 0 20 20" fill="none" xmlns="http://www.w3.org/2000/svg">
<g clip-path="url(#clip0_107_729)">
<path d="M16.7344 5.00781C15.4519 5.00781 14.407 6.05312 14.407 7.33516C14.407 8.61641 15.4523 9.6625 16.7344 9.6625C18.0156 9.6625 19.0617 8.61602 19.0617 7.33516C19.0621 6.05312 18.0156 5.00781 16.7344 5.00781ZM17.309 8.38086C17.2371 8.45273 17.1519 8.51133 17.0566 8.55234V8.72305C17.0566 8.90039 16.9125 9.04531 16.7344 9.04531C16.5562 9.04531 16.4121 8.90039 16.4121 8.72305V8.58477C16.3633 8.57148 16.3156 8.55273 16.2715 8.5293C16.1598 8.47266 16.0621 8.38984 15.9879 8.29023C15.8816 8.14727 15.9113 7.9457 16.0543 7.84063C16.1973 7.73438 16.3988 7.76406 16.5051 7.90703C16.5195 7.92695 16.5394 7.94375 16.5617 7.95469C16.5816 7.96563 16.6059 7.97148 16.6316 7.97148H16.7434C16.7855 7.97148 16.8242 7.95391 16.8531 7.925C16.882 7.89609 16.8996 7.85742 16.8996 7.81445C16.8996 7.77227 16.882 7.73359 16.8531 7.70469C16.8242 7.67578 16.7855 7.6582 16.7434 7.6582H16.7258H16.6871C16.6648 7.6582 16.643 7.65586 16.6219 7.65156C16.4426 7.62813 16.2809 7.54531 16.159 7.42344C16.0141 7.27734 15.9242 7.07695 15.9242 6.85664C15.9242 6.63516 16.0141 6.43477 16.159 6.28984C16.2309 6.21797 16.3172 6.15937 16.4125 6.11914V5.94844C16.4125 5.77031 16.5566 5.625 16.7348 5.625C16.9129 5.625 17.057 5.76992 17.057 5.94844V6.08555C17.1059 6.1 17.1523 6.11875 17.1977 6.14102C17.3094 6.19766 17.407 6.28047 17.4812 6.38008C17.5863 6.52305 17.5566 6.72461 17.4137 6.83086C17.2719 6.93594 17.0703 6.90625 16.9641 6.76328C16.9496 6.74336 16.9297 6.72656 16.9074 6.71562C16.8863 6.70547 16.8633 6.69883 16.8367 6.69883H16.7262C16.6828 6.69883 16.6441 6.71641 16.6156 6.74531C16.5879 6.77422 16.5703 6.81289 16.5703 6.85586C16.5703 6.89805 16.5879 6.93789 16.6156 6.96641C16.6445 6.99414 16.6832 7.01172 16.7262 7.01172H16.7437H16.7812C16.8047 7.01172 16.8266 7.01406 16.8477 7.01953C17.0269 7.04297 17.1875 7.12578 17.3094 7.24766C17.4543 7.39258 17.5453 7.59297 17.5453 7.81367C17.5449 8.03516 17.4543 8.23555 17.309 8.38086ZM5.81796 9.66289C7.10039 9.66289 8.14531 8.61641 8.14531 7.33555C8.14531 6.05312 7.1 5.0082 5.81796 5.0082C4.53671 5.0082 3.49062 6.05352 3.49062 7.33555C3.49023 8.6168 4.53671 9.66289 5.81796 9.66289ZM5.24296 6.28906C5.31484 6.21719 5.4 6.15859 5.49531 6.11836V5.94766C5.49531 5.76953 5.63945 5.62422 5.81757 5.62422C5.9957 5.62422 6.14101 5.76914 6.14101 5.94766V6.08477C6.18867 6.09922 6.23632 6.11797 6.28046 6.14023C6.39218 6.19688 6.48984 6.27969 6.56406 6.3793C6.67031 6.52227 6.64062 6.72383 6.49765 6.83008C6.35468 6.93516 6.15312 6.90547 6.04804 6.7625C6.03242 6.74258 6.0125 6.72578 5.99062 6.71484C5.9707 6.70469 5.94648 6.69805 5.9207 6.69805H5.81015C5.76679 6.69805 5.72812 6.71563 5.69961 6.74453C5.6707 6.77344 5.65312 6.81211 5.65312 6.85508C5.65312 6.89727 5.6707 6.93711 5.69961 6.96563C5.72851 6.99336 5.76718 7.01094 5.81015 7.01094H5.82695H5.86562C5.88789 7.01094 5.90976 7.01328 5.93203 7.01875C6.11015 7.04219 6.27187 7.125 6.39375 7.24688C6.53867 7.3918 6.62851 7.59219 6.62851 7.81289C6.62851 8.03438 6.53867 8.23477 6.39375 8.37969C6.32187 8.45156 6.23554 8.51016 6.1414 8.55117V8.72188C6.1414 8.89922 5.99648 9.04414 5.81796 9.04414C5.63984 9.04414 5.4957 8.89922 5.4957 8.72188V8.58359C5.44687 8.57031 5.40039 8.55156 5.35625 8.52813C5.24335 8.47149 5.1457 8.38867 5.07148 8.28906C4.9664 8.14609 4.99609 7.94453 5.13906 7.83945C5.28203 7.7332 5.48359 7.76289 5.58867 7.90586C5.60429 7.92578 5.62304 7.94258 5.64531 7.95352C5.6664 7.96445 5.68945 7.97031 5.71601 7.97031H5.82656C5.86992 7.97031 5.90859 7.95273 5.93711 7.92383C5.96601 7.89492 5.98359 7.85625 5.98359 7.81328C5.98359 7.77109 5.96601 7.73242 5.93711 7.70352C5.9082 7.67461 5.86953 7.65703 5.82656 7.65703H5.80976H5.77109C5.74765 7.65703 5.72578 7.65469 5.70468 7.65039C5.52539 7.62695 5.36484 7.54414 5.24296 7.42227C5.09804 7.27617 5.00703 7.07578 5.00703 6.85547C5.00742 6.63477 5.09804 6.43398 5.24296 6.28906ZM13.4449 12.782C13.6719 12.8496 13.8801 12.9781 14.043 13.1605L12.5062 13.9977C12.3137 13.7586 12.0523 13.5746 11.7477 13.4773L11.5164 13.402L12.4652 12.8859C12.7758 12.7156 13.1281 12.6891 13.4449 12.782ZM16.4289 13.698C16.6824 14.1652 16.5086 14.7555 16.0414 15.009L10.4164 18.0707C9.82382 18.393 9.19414 18.4527 8.55156 18.2457L7.33593 17.8539C6.76562 17.6711 6.20664 17.6965 5.67382 17.9293L3.62109 14.3645L5.64726 13.2617C6.46679 12.8156 7.33593 12.7348 8.22382 13.0203C9.33203 13.377 10.4418 13.7344 11.55 14.091C11.9176 14.2094 12.1656 14.5305 12.2121 14.8914C12.2297 15.0277 12.2187 15.1691 12.1734 15.3078C12.0105 15.8137 11.4637 16.0949 10.9566 15.9324L8.40312 15.1098C8.25468 15.0621 8.09531 15.143 8.04765 15.2914L8.02343 15.368C7.97578 15.5164 8.05781 15.6758 8.20507 15.7234L10.7598 16.5461C11.6047 16.8184 12.516 16.3512 12.7883 15.5062C12.8891 15.1918 12.8879 14.8672 12.8027 14.5707L15.1168 13.3117C15.584 13.0566 16.1742 13.2305 16.4289 13.698ZM5.48789 18.8988C5.55781 19.0184 5.51562 19.1734 5.39609 19.2434L4.14023 19.9664C4.01953 20.0363 3.86445 19.9941 3.7957 19.8734L0.971089 14.9703C0.902339 14.8508 0.943355 14.6957 1.06406 14.6258L2.31953 13.9027C2.43906 13.8328 2.59531 13.875 2.66406 13.9957L5.48789 18.8988ZM9.56836 0.787109C9.4664 0.55 9.52734 0.283203 9.71328 0.116016C9.86171 -0.0191406 10.0742 -0.0355469 10.2437 0.071875L10.4043 0.175C10.5516 0.269141 10.7297 0.269141 10.8769 0.175L11.0398 0.0710938C11.1871 -0.0230469 11.3652 -0.0230469 11.5125 0.0710938L11.6754 0.175C11.8227 0.269141 12.0008 0.269141 12.148 0.175L12.3098 0.071875C12.4781 -0.0355469 12.6906 -0.01875 12.8391 0.116016C13.025 0.283203 13.0859 0.55 12.984 0.787109L12.7734 1.27227H9.77812L9.56836 0.787109ZM8.79101 7.33555C8.79101 8.33008 8.30156 9.21133 7.55078 9.75039C8.36562 10.8699 9.73007 11.6039 11.2769 11.6039C12.8227 11.6039 14.1879 10.8699 15.0019 9.75039C14.2512 9.21133 13.7617 8.32969 13.7617 7.33555C13.7617 6.3168 14.2742 5.41875 15.0551 4.88281C14.7019 4.31602 14.2391 3.8 13.7008 3.36133C13.4902 3.54531 13.2148 3.6582 12.9144 3.6582H9.63789C9.33789 3.6582 9.06211 3.54531 8.85273 3.36133C8.31367 3.8 7.85078 4.31563 7.49726 4.88281C8.27812 5.41875 8.79101 6.3168 8.79101 7.33555ZM10.568 5.97578C10.6754 5.86836 10.807 5.78516 10.9531 5.73672V5.41563C10.9531 5.2375 11.098 5.09336 11.2766 5.09336C11.4539 5.09336 11.5988 5.2375 11.5988 5.41563V5.70352C11.6906 5.72109 11.7781 5.75117 11.8602 5.79336C11.9984 5.86328 12.118 5.96484 12.209 6.08789C12.3152 6.23086 12.2855 6.43242 12.1426 6.5375C11.9996 6.64375 11.798 6.61406 11.693 6.47109C11.6609 6.42773 11.6187 6.39258 11.5711 6.36797C11.5258 6.34453 11.4738 6.33125 11.4184 6.33125H11.2644C11.1715 6.33125 11.0863 6.36992 11.0242 6.43203C10.9621 6.49414 10.9234 6.5793 10.9234 6.67227C10.9234 6.76523 10.9621 6.85039 11.0242 6.9125C11.0863 6.97461 11.1715 7.01211 11.2644 7.01211H11.2879H11.341C11.3652 7.01211 11.3887 7.01523 11.4117 7.01992C11.6344 7.04883 11.8336 7.15039 11.9844 7.30234C12.1625 7.48047 12.2734 7.72656 12.2734 7.99883C12.2734 8.27031 12.1629 8.51602 11.9844 8.69414C11.8769 8.80156 11.7465 8.88477 11.5992 8.9332V9.2543C11.5992 9.43242 11.4543 9.57773 11.2769 9.57773C11.0988 9.57773 10.9535 9.43281 10.9535 9.2543V8.96641C10.8617 8.94961 10.7742 8.91875 10.6922 8.87774C10.5539 8.80703 10.4344 8.70625 10.3434 8.58203C10.2371 8.44023 10.2668 8.23867 10.4098 8.13242C10.5527 8.02734 10.7543 8.05703 10.8594 8.19883C10.8914 8.24297 10.9336 8.27852 10.9824 8.30273C11.0266 8.325 11.0789 8.33828 11.1352 8.33828H11.2879C11.382 8.33828 11.466 8.29961 11.5281 8.2375C11.5902 8.17656 11.6289 8.09141 11.6289 7.99844C11.6289 7.9043 11.5902 7.81914 11.5281 7.7582C11.466 7.69609 11.382 7.65742 11.2879 7.65742H11.2644H11.2113C11.1871 7.65742 11.1637 7.65508 11.1406 7.64961C10.9191 7.62188 10.7187 7.51914 10.568 7.36836C10.3898 7.19023 10.2789 6.94297 10.2789 6.67188C10.2789 6.40078 10.3898 6.15391 10.568 5.97578ZM9.08984 2.46562C9.08984 2.16445 9.33671 1.91758 9.63789 1.91758H12.9156C13.2168 1.91758 13.4625 2.16445 13.4625 2.46562C13.4625 2.7668 13.2168 3.0125 12.9156 3.0125H9.63789C9.33671 3.0125 9.08984 2.7668 9.08984 2.46562ZM15.5961 3.10117V2.04922C15.5961 1.87109 15.7402 1.72578 15.9184 1.72578C16.0965 1.72578 16.2406 1.8707 16.2406 2.04922V3.10117C16.2406 3.2793 16.0965 3.42344 15.9184 3.42344C15.7402 3.42344 15.5961 3.27969 15.5961 3.10117ZM17.2273 4.11992V3.0668C17.2273 2.88867 17.3723 2.74453 17.5508 2.74453C17.7281 2.74453 17.873 2.88867 17.873 3.0668V4.11992C17.873 4.29805 17.7281 4.44219 17.5508 4.44219C17.3723 4.44219 17.2273 4.29805 17.2273 4.11992ZM6.31171 3.10117V2.04922C6.31171 1.87109 6.45586 1.72578 6.63398 1.72578C6.81211 1.72578 6.95625 1.8707 6.95625 2.04922V3.10117C6.95625 3.2793 6.81211 3.42344 6.63398 3.42344C6.45586 3.42344 6.31171 3.27969 6.31171 3.10117ZM4.67968 4.11992V3.0668C4.67968 2.88867 4.82461 2.74453 5.00312 2.74453C5.18046 2.74453 5.32539 2.88867 5.32539 3.0668V4.11992C5.32539 4.29805 5.18046 4.44219 5.00312 4.44219C4.82461 4.44219 4.67968 4.29805 4.67968 4.11992Z" fill="black"/>
</g>
<defs>
<clipPath id="clip0_107_729">
<rect width="20" height="20" fill="white"/>
</clipPath>
</defs>
</svg>
