<svg width="20" height="20" viewBox="0 0 20 20" fill="none" xmlns="http://www.w3.org/2000/svg">
<g clip-path="url(#clip0_686_212)">
<path d="M12.9167 0H7.08333C4.55583 0 2.5 2.05583 2.5 4.58333V15.4167C2.5 17.9442 4.55583 20 7.08333 20H12.9167C15.4442 20 17.5 17.9442 17.5 15.4167V4.58333C17.5 2.05583 15.4442 0 12.9167 0ZM15 15.4167C15 16.565 14.065 17.5 12.9167 17.5H12.5V14.9283C12.9858 14.7567 13.3333 14.2942 13.3333 13.75C13.3333 13.0592 12.7742 12.5 12.0833 12.5H7.91667C7.22583 12.5 6.66667 13.0592 6.66667 13.75C6.66667 14.2942 7.01417 14.7567 7.5 14.9283V17.5H7.08333C5.935 17.5 5 16.565 5 15.4167V4.58333C5 3.435 5.935 2.5 7.08333 2.5H12.9167C14.065 2.5 15 3.435 15 4.58333V15.4167ZM9.16667 9.16667V10C9.16667 10.46 8.79333 10.8333 8.33333 10.8333H7.5C7.04 10.8333 6.66667 10.46 6.66667 10V9.16667C6.66667 8.70667 7.04 8.33333 7.5 8.33333H8.33333C8.79333 8.33333 9.16667 8.70667 9.16667 9.16667ZM13.3333 9.16667V10C13.3333 10.46 12.96 10.8333 12.5 10.8333H11.6667C11.2067 10.8333 10.8333 10.46 10.8333 10V9.16667C10.8333 8.70667 11.2067 8.33333 11.6667 8.33333H12.5C12.96 8.33333 13.3333 8.70667 13.3333 9.16667ZM9.16667 5V5.83333C9.16667 6.29333 8.79333 6.66667 8.33333 6.66667H7.5C7.04 6.66667 6.66667 6.29333 6.66667 5.83333V5C6.66667 4.54 7.04 4.16667 7.5 4.16667H8.33333C8.79333 4.16667 9.16667 4.54 9.16667 5ZM13.3333 5V5.83333C13.3333 6.29333 12.96 6.66667 12.5 6.66667H11.6667C11.2067 6.66667 10.8333 6.29333 10.8333 5.83333V5C10.8333 4.54 11.2067 4.16667 11.6667 4.16667H12.5C12.96 4.16667 13.3333 4.54 13.3333 5Z" fill="black"/>
</g>
<defs>
<clipPath id="clip0_686_212">
<rect width="20" height="20" fill="white"/>
</clipPath>
</defs>
</svg>
