<svg width="131" height="28" viewBox="0 0 131 28" fill="none" xmlns="http://www.w3.org/2000/svg">
<mask id="mask0_117_655" style="mask-type:luminance" maskUnits="userSpaceOnUse" x="0" y="0" width="131" height="28">
<path d="M131 0H0V28H131V0Z" fill="white"/>
</mask>
<g mask="url(#mask0_117_655)">
<path d="M31.2245 23.4027L29.9019 19.5817L28.6311 15.9079L28.5811 15.7625L27.5416 15.255L24.9845 14.0067H24.9862H24.9707L27.5261 12.7585L28.5655 12.2511L28.6156 12.1073L29.8881 8.43179L31.209 4.61254L31.6959 3.20526L31.9566 2.44919H28.897L28.8469 2.59127L27.5261 6.40883L26.4279 9.5837L26.2345 10.1435L26.2034 10.2298L21.5899 12.4828L23.1438 14.0067L23.1455 14.0085L21.5951 15.5274L21.7349 15.5933L22.5326 15.9841L23.983 16.6911L26.219 17.782V17.7838L26.2484 17.87L26.4434 18.4315L27.5399 21.603L28.9108 25.5728L31.9722 25.5644L31.7114 24.8083L31.2245 23.4027Z" fill="url(#paint0_linear_117_655)"/>
<path d="M6.03459 4.82391L7.35547 8.64317L8.16699 9.03893L10.7863 10.3176L11.0384 10.4412L11.8378 10.8302L12.0018 10.9114L14.1636 8.79375L11.7273 7.60294L9.7175 6.62191L9.36012 5.58844L8.45707 2.97856L7.83029 1.16365L7.43144 0.0151672H4.37012L5.39574 2.97856L6.03459 4.82391Z" fill="url(#paint1_linear_117_655)"/>
<path d="M24.6012 8.64317L25.6579 5.58844L25.922 4.82392L26.5609 2.97856L27.5864 0.0151672H24.5252L24.128 1.16365L23.4995 2.97856L22.5965 5.58844L22.2391 6.62191L20.231 7.60295L17.8138 8.7836L19.9754 10.9013L24.6012 8.64317Z" fill="url(#paint2_linear_117_655)"/>
<path d="M7.37102 19.372L6.31258 22.425L6.04841 23.1896L5.41128 25.0349L4.38565 28H7.44699L7.84411 26.8498L8.47261 25.0349L9.37565 22.425L9.73303 21.3916L11.7411 20.4105L14.167 19.2265L12.0053 17.1089L7.37102 19.372Z" fill="url(#paint3_linear_117_655)"/>
<path d="M25.9376 23.1895L24.6167 19.372L23.8051 18.9762L21.1841 17.6957L20.9337 17.574V17.5723L20.1343 17.1832L19.9806 17.1071L17.8189 19.2265L20.2448 20.4105L22.2547 21.3916L22.612 22.425L23.515 25.0349L24.1419 26.8498L24.5407 28H27.6021L26.5764 25.0349L25.9376 23.1895Z" fill="url(#paint4_linear_117_655)"/>
<path d="M5.54423 18.4314V18.4298L5.73762 17.8699L5.76869 17.7837L10.3909 15.5273L8.84038 14.0084L8.84211 14.0066L10.3875 12.4928L10.2372 12.4201L9.43954 12.0311L7.98915 11.3223L5.75316 10.2314V10.2297L5.7238 10.1434L5.52869 9.58186L4.43228 6.41044L3.0596 2.44064L0 2.4491L0.260722 3.20517L0.747634 4.61245L2.07024 8.4334L3.34105 12.1055L3.39111 12.251L4.43055 12.7584L6.9877 14.0066L6.98598 14.0084H7.00152L4.44609 15.2549L3.40493 15.7623L3.35659 15.9062L2.08405 19.5816L0.763174 23.4026L0.276262 24.8082L0.0138131 25.5643H3.07514L3.12521 25.4222L4.44609 21.6046L5.54423 18.4314Z" fill="url(#paint5_linear_117_655)"/>
<path d="M19.6491 14.5751L20.2293 14.0084L20.2276 14.0067L19.6422 13.4334L18.0278 11.8519L15.9938 9.85767L13.9495 11.862L12.3334 13.4435L11.7601 14.0067L11.7584 14.0084L12.3386 14.5751L13.9529 16.1582L15.9938 18.1558L18.0331 16.1582L19.6491 14.5751Z" fill="url(#paint6_linear_117_655)"/>
<path d="M49.9948 23.8103C50.1917 23.6084 50.4291 23.4484 50.692 23.3404C50.955 23.2325 51.2378 23.1787 51.5228 23.1828C51.9423 23.1776 52.3527 23.3025 52.6953 23.5397C53.0391 23.7727 53.3086 24.0964 53.4722 24.4733L52.8662 24.6424C52.7511 24.3875 52.565 24.1694 52.3292 24.0133C52.0915 23.8555 51.81 23.7728 51.5228 23.7765H51.5039C51.3018 23.7718 51.1011 23.809 50.9149 23.8857C50.7286 23.9624 50.561 24.0768 50.423 24.2214C50.1422 24.5214 49.9865 24.9137 49.9865 25.3207C49.9865 25.7279 50.1422 26.1201 50.423 26.4202C50.5629 26.5667 50.7331 26.6824 50.9221 26.7597C51.1111 26.8369 51.3147 26.874 51.5194 26.8684C51.8044 26.8749 52.0845 26.7958 52.3223 26.6418C52.5545 26.4877 52.7377 26.2726 52.8507 26.0211L53.4619 26.1817C53.3015 26.5558 53.0355 26.8773 52.6953 27.1086C52.3506 27.3437 51.9393 27.4669 51.5194 27.4605C51.2337 27.4656 50.95 27.4128 50.6861 27.3054C50.4223 27.198 50.1839 27.0383 49.9862 26.8363C49.5806 26.4339 49.3533 25.8912 49.3533 25.3258C49.3533 24.7604 49.5806 24.2178 49.9862 23.8154L49.9948 23.8103Z" fill="#0E0E37"/>
<path d="M58.9388 27.4266V23.2437H60.8139C61.0006 23.2379 61.1864 23.2704 61.3595 23.3392C61.5326 23.4079 61.689 23.5114 61.8188 23.6429C61.9463 23.7688 62.047 23.9182 62.1149 24.0825C62.1827 24.2469 62.2166 24.4229 62.2142 24.6003C62.219 24.8844 62.1239 25.1615 61.9449 25.3851C61.7716 25.606 61.5289 25.7647 61.2542 25.8366L62.2677 27.4266H61.5529L60.5826 25.9044H59.5673V27.4266H58.9388ZM60.7707 25.3648C60.9915 25.3725 61.2063 25.294 61.3681 25.1465C61.4456 25.0738 61.5066 24.986 61.547 24.8887C61.5875 24.7913 61.6066 24.6867 61.603 24.5816C61.6089 24.3753 61.5321 24.1749 61.3888 24.0236C61.315 23.948 61.2255 23.8888 61.1263 23.85C61.0271 23.8112 60.9206 23.7936 60.8139 23.7985H59.5673V25.3648H60.7707Z" fill="#0E0E37"/>
<path d="M70.7369 23.2437V23.8171H68.349V25.0535H70.4934V25.6151H68.349V26.8516H70.7369V27.4266H67.7187V23.2437H70.7369Z" fill="#0E0E37"/>
<path d="M76.1689 27.4266L77.7228 23.2437H78.7588L80.2852 27.4266H79.6257L79.2717 26.4693H77.1893L76.8285 27.4266H76.1689ZM79.0886 25.9043L78.246 23.5448L77.3827 25.9043H79.0886Z" fill="#0E0E37"/>
<path d="M85.0456 23.2437H88.4729V23.8171H87.0916V27.4266H86.4631V23.8171H85.0456V23.2437Z" fill="#0E0E37"/>
<path d="M93.9602 27.4266V23.2437H94.5955V27.4266H93.9602Z" fill="#0E0E37"/>
<path d="M100.741 23.8222C100.941 23.6248 101.18 23.4682 101.442 23.3614C101.704 23.2544 101.985 23.1995 102.27 23.1995C102.554 23.1995 102.835 23.2544 103.098 23.3614C103.36 23.4682 103.599 23.6248 103.799 23.8222C104.205 24.2245 104.434 24.7679 104.434 25.3343C104.434 25.9007 104.205 26.4442 103.799 26.8465C103.598 27.0442 103.359 27.2011 103.096 27.3082C102.833 27.4153 102.551 27.4705 102.266 27.4705C101.982 27.4705 101.699 27.4153 101.436 27.3082C101.173 27.2011 100.935 27.0442 100.734 26.8465C100.331 26.4415 100.105 25.8983 100.105 25.3326C100.105 24.767 100.331 24.2238 100.734 23.8188L100.741 23.8222ZM100.741 25.3445C100.736 25.5471 100.773 25.7485 100.848 25.9371C100.925 26.1258 101.037 26.298 101.181 26.4439C101.322 26.5874 101.493 26.7015 101.68 26.7794C101.868 26.8573 102.07 26.8975 102.273 26.8975C102.477 26.8975 102.679 26.8573 102.866 26.7794C103.054 26.7015 103.224 26.5874 103.365 26.4439C103.653 26.1485 103.81 25.7532 103.802 25.3445C103.81 24.9322 103.652 24.5333 103.362 24.2349C103.221 24.0904 103.052 23.9754 102.865 23.8969C102.677 23.8183 102.475 23.7778 102.272 23.7778C102.068 23.7778 101.866 23.8183 101.678 23.8969C101.491 23.9754 101.321 24.0904 101.181 24.2349C100.892 24.5325 100.733 24.93 100.741 25.3411V25.3445Z" fill="#0E0E37"/>
<path d="M111.024 23.2437L112.912 27.019V23.2437H113.529V27.4266H112.429L110.516 23.5837V27.4266H109.899V23.2437H111.024Z" fill="#0E0E37"/>
<path d="M119.544 23.5177C119.877 23.2981 120.271 23.1852 120.673 23.1947C121.232 23.1856 121.777 23.3561 122.227 23.6801V24.3314C122 24.1618 121.749 24.0246 121.483 23.9237C121.228 23.8242 120.956 23.7721 120.682 23.7698C120.44 23.7653 120.201 23.8237 119.991 23.9389C119.904 23.9795 119.83 24.0432 119.778 24.1227C119.726 24.2022 119.697 24.2944 119.695 24.3889C119.694 24.452 119.708 24.5146 119.736 24.5715C119.768 24.6326 119.818 24.6837 119.878 24.7187C119.948 24.7627 120.009 24.7982 120.061 24.8252C120.149 24.8665 120.239 24.8989 120.332 24.9217L120.621 24.9995C120.683 25.0148 120.794 25.0418 120.967 25.0773C121.485 25.1957 121.842 25.3597 122.054 25.5661C122.156 25.6613 122.236 25.7756 122.29 25.902C122.345 26.0285 122.373 26.1645 122.372 26.3019V26.3138C122.378 26.4848 122.339 26.6545 122.258 26.8059C122.176 26.9573 122.055 27.0851 121.907 27.1763C121.582 27.3822 121.202 27.4877 120.814 27.4791H120.752C120.145 27.4821 119.56 27.2576 119.116 26.8516V26.2004C119.562 26.6337 120.16 26.8837 120.788 26.899C121.022 26.9062 121.255 26.8537 121.462 26.7466C121.546 26.7065 121.616 26.6438 121.665 26.566C121.713 26.4881 121.738 26.3982 121.737 26.307C121.734 26.2174 121.707 26.1303 121.659 26.0543C121.61 25.9782 121.543 25.916 121.462 25.8739C121.168 25.7147 120.85 25.6006 120.521 25.5356C120.126 25.4679 119.749 25.3185 119.417 25.0975C119.306 25.0137 119.217 24.9051 119.157 24.7807C119.097 24.6563 119.067 24.5196 119.073 24.382C119.07 24.2107 119.112 24.0416 119.195 23.8905C119.277 23.7394 119.397 23.6112 119.544 23.5177Z" fill="#0E0E37"/>
<path d="M42.4235 4.22512H44.2019V6.63715C44.576 5.87396 45.1504 5.22192 45.8664 4.74783C46.6356 4.24176 47.5456 3.98118 48.4719 4.00188C49.4439 3.98851 50.3954 4.27557 51.1914 4.82224C52.0178 5.40924 52.6321 6.23857 52.9456 7.19024C53.3237 6.24495 53.9861 5.43443 54.845 4.86617C55.6981 4.29742 56.7086 3.99819 57.7405 4.00865C58.4094 3.99428 59.0739 4.11732 59.6913 4.3699C60.3087 4.62248 60.8652 4.99898 61.325 5.47511C62.2908 6.45276 62.7737 7.7952 62.7737 9.50242V17.4048H61.0004V9.99968C61.0004 8.60821 60.6827 7.5268 60.0473 6.7555C59.4119 5.98421 58.552 5.59911 57.4676 5.60024C56.2487 5.60024 55.2915 6.02649 54.5963 6.87897C53.8912 7.76323 53.5067 8.85229 53.5034 9.9743V17.4048H51.7249V9.99968C51.7249 8.60821 51.4032 7.5268 50.7597 6.7555C50.4531 6.38036 50.0614 6.08061 49.6156 5.88005C49.1699 5.67948 48.6824 5.58362 48.1922 5.60024C46.9387 5.60024 45.9602 6.05128 45.2569 6.95338C44.5438 7.88826 44.1722 9.03088 44.2019 10.1976V17.4048H42.4235V4.22512Z" fill="#0E0E37"/>
<path d="M66.5532 5.99098C67.1686 5.35086 67.9135 4.84346 68.7403 4.50098C69.567 4.15851 70.4575 3.98851 71.355 4.00189C72.4247 3.99249 73.4777 4.26138 74.4067 4.78112C75.3355 5.30087 76.1069 6.05281 76.642 6.96017V4.22513H78.4205V17.398H76.642V14.6647C76.1211 15.5561 75.3664 16.2949 74.4561 16.8044C73.5118 17.338 72.4382 17.6126 71.3482 17.5993C70.4496 17.6124 69.558 17.4412 68.7311 17.0965C67.9041 16.752 67.1599 16.2417 66.5464 15.5984C65.2751 14.3098 64.5644 12.5877 64.5644 10.7956C64.5644 9.0034 65.2751 7.28138 66.5464 5.99272L66.5532 5.99098ZM66.2735 10.788C66.2589 11.4741 66.3865 12.1559 66.6485 12.7922C66.9106 13.4286 67.3017 14.0063 67.7982 14.4904C68.2823 14.9721 68.8598 15.3542 69.4968 15.6141C70.1336 15.8742 70.8173 16.0069 71.5072 16.0045C72.1972 16.0022 72.8799 15.8648 73.515 15.6005C74.15 15.336 74.7247 14.9501 75.2054 14.4651C76.1913 13.4869 76.7442 12.1676 76.7442 10.793C76.7442 9.41833 76.1913 8.09907 75.2054 7.12089C74.723 6.63758 74.1469 6.25357 73.5109 5.9914C72.8748 5.72921 72.1919 5.59414 71.5018 5.59414C70.8118 5.59414 70.1287 5.72921 69.4927 5.9914C68.8566 6.25357 68.2806 6.63758 67.7982 7.12089C67.3054 7.60029 66.9164 8.17217 66.6544 8.80224C66.3924 9.43233 66.2629 10.1077 66.2735 10.788Z" fill="#0E0E37"/>
<path d="M83.7212 0V12.1039L91.2962 4.2252H93.4802L87.6873 10.1909L93.7305 17.3981H91.5995L86.5926 11.3597L83.7195 14.3163V17.3981H81.941V0H83.7212Z" fill="#0E0E37"/>
<path d="M95.5017 4.2252H97.2819V11.5829C97.2819 12.9361 97.6928 14.0074 98.5129 14.7967C98.9041 15.1806 99.3707 15.4832 99.8839 15.6867C100.397 15.8901 100.947 15.99 101.501 15.9807C102.12 15.9954 102.735 15.8759 103.302 15.6309C103.87 15.3859 104.375 15.0214 104.781 14.5632C105.644 13.6195 106.076 12.41 106.076 10.9351V4.22354H107.854V17.3964H106.076V14.8593C105.622 15.6691 104.961 16.3497 104.158 16.8349C103.277 17.3681 102.257 17.64 101.223 17.618C99.7341 17.644 98.2922 17.1101 97.1939 16.1262C96.067 15.1316 95.5035 13.7976 95.5035 12.1243L95.5017 4.2252Z" fill="#0E0E37"/>
<path d="M109.655 4.22861H111.429V7.01105C111.87 5.94995 112.509 5.20003 113.348 4.76139C114.147 4.33291 115.042 4.10679 115.952 4.10349C116.344 4.10532 116.735 4.13868 117.121 4.20325V6.01651C116.679 5.92117 116.228 5.87123 115.774 5.8676C114.739 5.8676 113.756 6.24478 112.827 6.99916C111.898 7.75354 111.432 9.02501 111.429 10.8134V17.3998H109.65L109.655 4.22861Z" fill="#0E0E37"/>
<path d="M119.131 5.99276C119.747 5.35268 120.492 4.84523 121.319 4.50276C122.146 4.1603 123.037 3.99029 123.935 4.00359C125.003 3.99568 126.054 4.2653 126.981 4.78497C127.908 5.30464 128.679 6.05584 129.213 6.96195V4.22857H130.993V17.3998H129.213V14.6664C128.694 15.5558 127.942 16.2938 127.036 16.8044C126.091 17.3378 125.018 17.6124 123.928 17.5994C123.029 17.6124 122.137 17.4411 121.31 17.0965C120.482 16.7519 119.738 16.2417 119.124 15.5984C117.852 14.3097 117.142 12.5877 117.142 10.7956C117.142 9.00348 117.852 7.28142 119.124 5.99276H119.131ZM118.853 10.7896C118.839 11.4757 118.966 12.1576 119.228 12.794C119.49 13.4304 119.881 14.0081 120.377 14.4922C120.862 14.9741 121.44 15.3563 122.077 15.6165C122.714 15.8767 123.398 16.0095 124.088 16.0072C124.778 16.0048 125.46 15.8673 126.096 15.6028C126.731 15.3383 127.306 14.9521 127.787 14.4669C128.771 13.488 129.323 12.169 129.323 10.7948C129.323 9.42051 128.771 8.1014 127.787 7.12258C127.304 6.63901 126.728 6.25485 126.092 5.99251C125.456 5.73018 124.772 5.59501 124.082 5.59501C123.392 5.59501 122.708 5.73018 122.072 5.99251C121.436 6.25485 120.86 6.63901 120.377 7.12258C119.886 7.60251 119.497 8.17448 119.235 8.80442C118.973 9.43442 118.843 10.1095 118.853 10.7896Z" fill="#0E0E37"/>
</g>
<defs>
<linearGradient id="paint0_linear_117_655" x1="39.3172" y1="22.7126" x2="15.6202" y2="-1.47766" gradientUnits="userSpaceOnUse">
<stop stop-color="#1616F7"/>
<stop offset="1" stop-color="#43B2E5"/>
</linearGradient>
<linearGradient id="paint1_linear_117_655" x1="32.7388" y1="29.1569" x2="9.04173" y2="4.96665" gradientUnits="userSpaceOnUse">
<stop stop-color="#1616F7"/>
<stop offset="1" stop-color="#43B2E5"/>
</linearGradient>
<linearGradient id="paint2_linear_117_655" x1="40.3567" y1="21.696" x2="16.658" y2="-2.49599" gradientUnits="userSpaceOnUse">
<stop stop-color="#1616F7"/>
<stop offset="1" stop-color="#43B2E5"/>
</linearGradient>
<linearGradient id="paint3_linear_117_655" x1="23.838" y1="37.8763" x2="0.139192" y2="13.686" gradientUnits="userSpaceOnUse">
<stop stop-color="#1616F7"/>
<stop offset="1" stop-color="#43B2E5"/>
</linearGradient>
<linearGradient id="paint4_linear_117_655" x1="31.4507" y1="30.4188" x2="7.75371" y2="6.22679" gradientUnits="userSpaceOnUse">
<stop stop-color="#1616F7"/>
<stop offset="1" stop-color="#43B2E5"/>
</linearGradient>
<linearGradient id="paint5_linear_117_655" x1="24.8739" y1="36.863" x2="1.17521" y2="12.6711" gradientUnits="userSpaceOnUse">
<stop stop-color="#1616F7"/>
<stop offset="1" stop-color="#43B2E5"/>
</linearGradient>
<linearGradient id="paint6_linear_117_655" x1="32.0982" y1="29.7844" x2="8.40116" y2="5.59417" gradientUnits="userSpaceOnUse">
<stop stop-color="#1616F7"/>
<stop offset="1" stop-color="#43B2E5"/>
</linearGradient>
</defs>
</svg>
