<svg width="20" height="20" viewBox="0 0 20 20" fill="none" xmlns="http://www.w3.org/2000/svg">
<g id="Sidebar Iconset" clip-path="url(#clip0_686_169)">
<path id="Vector" d="M4.16667 16.6667H10.8333C13.1308 16.6667 15 14.7975 15 12.5V7.50001C15 5.20251 13.1308 3.33334 10.8333 3.33334H4.16667C1.86917 3.33334 0 5.20251 0 7.50001V12.5C0 14.7975 1.86917 16.6667 4.16667 16.6667ZM20 6.92751V13.0267C20 13.6575 19.65 14.2242 19.0858 14.5058C18.85 14.6233 18.5967 14.6817 18.345 14.6817C17.9942 14.6817 17.6475 14.5692 17.3542 14.3492C17.3233 14.3258 16.6667 13.6742 16.6667 13.6742V6.28668C16.6667 6.28668 17.3217 5.62918 17.3542 5.60501C17.8575 5.22668 18.52 5.16584 19.0858 5.44834C19.6517 5.73084 20 6.29668 20 6.92751Z" fill="black"/>
</g>
<defs>
<clipPath id="clip0_686_169">
<rect width="20" height="20" fill="white"/>
</clipPath>
</defs>
</svg>
