<svg width="14" height="16" viewBox="0 0 14 16" fill="none" xmlns="http://www.w3.org/2000/svg">
<path fill-rule="evenodd" clip-rule="evenodd" d="M14 7.80001C14 8.1866 13.6866 8.50001 13.3 8.50001H3.78994L7.49497 12.205C7.76835 12.4784 7.76835 12.9216 7.49497 13.195C7.22161 13.4683 6.77839 13.4683 6.50503 13.195L1.60496 8.29498C1.46846 8.15846 1.40014 7.97961 1.4 7.80069V14.8C1.4 15.1865 1.08654 15.5 0.7 15.5C0.31346 15.5 0 15.1865 0 14.8V0.800006C0 0.41341 0.31346 0.100006 0.7 0.100006C1.08654 0.100006 1.4 0.41341 1.4 0.800006V7.80069C1.40014 7.62177 1.46846 7.44154 1.60496 7.30502L6.50503 2.40504C6.77839 2.13166 7.22161 2.13166 7.49497 2.40504C7.76835 2.6784 7.76835 3.12161 7.49497 3.39498L3.78994 7.10001H13.3C13.6866 7.10001 14 7.41341 14 7.80001Z" fill="black"/>
</svg>
