<svg width="20" height="20" viewBox="0 0 20 20" fill="none" xmlns="http://www.w3.org/2000/svg">
<g id="Group">
<path id="Vector" d="M1.66668 14.5833H3.75C4.67047 14.5833 5.41668 15.3295 5.41668 16.25V18.3333C5.41668 19.2538 4.67047 20 3.75 20H1.66668C0.746211 20 0 19.2538 0 18.3333V16.25C0 15.3295 0.746211 14.5833 1.66668 14.5833Z" fill="black"/>
<path id="Vector_2" d="M19.265 14.8683C18.99 14.6821 18.6654 14.5828 18.3333 14.5833H16.25C15.3295 14.5833 14.5833 15.3295 14.5833 16.25V18.3333C14.5833 19.2538 15.3295 20 16.25 20H18.3333C19.2538 20 20 19.2538 20 18.3333V16.25C19.9999 15.6959 19.7244 15.1781 19.265 14.8683Z" fill="black"/>
<path id="Vector_3" d="M1.66668 7.29169H3.75C4.67047 7.29169 5.41668 8.0379 5.41668 8.95837V11.0417C5.41668 11.9622 4.67047 12.7084 3.75 12.7084H1.66668C0.746211 12.7083 0 11.9622 0 11.0417V8.95837C0 8.03786 0.746211 7.29169 1.66668 7.29169Z" fill="black"/>
<path id="Vector_4" d="M19.265 7.57669C18.99 7.39044 18.6654 7.29114 18.3333 7.29169H16.25C15.3295 7.29169 14.5833 8.0379 14.5833 8.95837V11.0417C14.5833 11.9622 15.3295 12.7084 16.25 12.7084H18.3333C19.2538 12.7084 20 11.9622 20 11.0417V8.95837C19.9999 8.40423 19.7244 7.88642 19.265 7.57669Z" fill="black"/>
<path id="Vector_5" d="M1.66668 0H3.75C4.67047 0 5.41668 0.746211 5.41668 1.66668V3.75C5.41668 4.67047 4.67047 5.41668 3.75 5.41668H1.66668C0.746211 5.41668 0 4.67047 0 3.75V1.66668C0 0.746211 0.746211 0 1.66668 0Z" fill="black"/>
<path id="Vector_6" d="M11.9733 14.8683C11.6984 14.6821 11.3738 14.5828 11.0416 14.5833H8.95832C8.03785 14.5833 7.29164 15.3295 7.29164 16.25V18.3333C7.29164 19.2538 8.03785 20 8.95832 20H11.0416C11.9621 20 12.7083 19.2538 12.7083 18.3333V16.25C12.7082 15.6959 12.4328 15.1781 11.9733 14.8683Z" fill="black"/>
<path id="Vector_7" d="M11.9733 7.57669C11.6984 7.39044 11.3738 7.29114 11.0416 7.29169H8.95832C8.03785 7.29169 7.29164 8.0379 7.29164 8.95837V11.0417C7.29164 11.9622 8.03785 12.7084 8.95832 12.7084H11.0416C11.9621 12.7084 12.7083 11.9622 12.7083 11.0417V8.95837C12.7082 8.40423 12.4328 7.88642 11.9733 7.57669Z" fill="black"/>
<path id="Vector_8" d="M11.9733 0.285002C11.6984 0.0987522 11.3738 -0.000544628 11.0416 2.24682e-06H8.95832C8.03785 2.24682e-06 7.29164 0.746213 7.29164 1.66668V3.75C7.29164 4.67047 8.03785 5.41668 8.95832 5.41668H11.0416C11.9621 5.41668 12.7083 4.67047 12.7083 3.75V1.66668C12.7082 1.11258 12.4328 0.594729 11.9733 0.285002Z" fill="black"/>
<path id="Vector_9" d="M19.715 0.735C19.4053 0.275547 18.8874 7.8125e-05 18.3333 0H16.25C15.3295 0 14.5833 0.746211 14.5833 1.66668V3.75C14.5833 4.67047 15.3295 5.41668 16.25 5.41668H18.3333C19.2538 5.41668 20 4.67047 20 3.75V1.66668C20.0005 1.33457 19.9012 1.00996 19.715 0.735Z" fill="black"/>
</g>
</svg>
