<svg width="20" height="20" viewBox="0 0 20 20" fill="none" xmlns="http://www.w3.org/2000/svg">
<g clip-path="url(#clip0_686_174)">
<path d="M15 15C15 15.6892 14.4392 16.25 13.75 16.25C13.0608 16.25 12.5 15.6892 12.5 15C12.5 14.3108 13.0608 13.75 13.75 13.75C14.4392 13.75 15 14.3108 15 15ZM20 10V15.8333C20 18.1308 18.1308 20 15.8333 20H4.16667C1.86917 20 0 18.1308 0 15.8333V10H20ZM8.33333 16.6667C8.33333 16.2067 7.96083 15.8333 7.5 15.8333H4.16667C3.70583 15.8333 3.33333 16.2067 3.33333 16.6667C3.33333 17.1267 3.70583 17.5 4.16667 17.5H7.5C7.96083 17.5 8.33333 17.1267 8.33333 16.6667ZM8.33333 13.3333C8.33333 12.8733 7.96083 12.5 7.5 12.5H4.16667C3.70583 12.5 3.33333 12.8733 3.33333 13.3333C3.33333 13.7933 3.70583 14.1667 4.16667 14.1667H7.5C7.96083 14.1667 8.33333 13.7933 8.33333 13.3333ZM16.6667 15C16.6667 13.3917 15.3583 12.0833 13.75 12.0833C12.1417 12.0833 10.8333 13.3917 10.8333 15C10.8333 16.6083 12.1417 17.9167 13.75 17.9167C15.3583 17.9167 16.6667 16.6083 16.6667 15ZM19.9158 8.33334C19.5283 6.43417 17.845 5.00001 15.8333 5.00001H8.37167L17.7817 1.61751C18.2158 1.46167 18.44 0.985007 18.285 0.551674C18.1283 0.11834 17.65 -0.10916 17.2192 0.0491737L2.8725 5.20584C1.46417 5.66751 0.384167 6.86001 0.0841667 8.33334H19.9158Z" fill="black"/>
</g>
<defs>
<clipPath id="clip0_686_174">
<rect width="20" height="20" fill="white"/>
</clipPath>
</defs>
</svg>
