<svg width="24" height="24" viewBox="0 0 24 24" fill="none" xmlns="http://www.w3.org/2000/svg">
<mask id="mask0_107_162" style="mask-type:luminance" maskUnits="userSpaceOnUse" x="0" y="0" width="24" height="24">
<path d="M0 1.90735e-06H24V24H0V1.90735e-06Z" fill="white"/>
</mask>
<g mask="url(#mask0_107_162)">
<path d="M13.4039 2.10938C13.4039 2.886 12.7743 3.51562 11.9977 3.51562C11.221 3.51562 10.5914 2.886 10.5914 2.10938C10.5914 1.33275 11.221 0.703125 11.9977 0.703125C12.7743 0.703125 13.4039 1.33275 13.4039 2.10938Z" stroke="black" stroke-width="1.5" stroke-miterlimit="10"/>
<path d="M19.0289 14.6934V10.5469C19.0289 6.66361 15.8809 3.51563 11.9977 3.51563C8.11441 3.51563 4.96643 6.66361 4.96643 10.5469V14.6934C4.96643 15.657 4.42202 16.5378 3.56018 16.9688C2.69834 17.3997 2.15393 18.2805 2.15393 19.2441V20.4844H21.8414V19.2441C21.8414 18.2805 21.297 17.3997 20.4352 16.9688C19.5733 16.5378 19.0289 15.657 19.0289 14.6934Z" stroke="black" stroke-width="1.5" stroke-miterlimit="10"/>
<path d="M13.987 20.4844C14.0647 20.7043 14.1071 20.9409 14.1071 21.1875C14.1071 22.3525 13.1626 23.2969 11.9977 23.2969C10.8327 23.2969 9.88831 22.3525 9.88831 21.1875C9.88831 20.9409 9.93059 20.7043 10.0083 20.4844" stroke="black" stroke-width="1.5" stroke-miterlimit="10"/>
</g>
</svg>
