<svg width="20" height="20" viewBox="0 0 20 20" fill="none" xmlns="http://www.w3.org/2000/svg">
<g clip-path="url(#clip0_686_207)">
<path d="M14.1667 11.6667C14.1667 11.2058 14.5392 10.8333 15 10.8333H18.3333V8.7375C18.3333 8.60167 18.3225 8.4675 18.3133 8.33333H12.5C11.1217 8.33333 10 7.21167 10 5.83333V0.02C9.86584 0.0108333 9.73167 0 9.59584 0H5.83334C3.53584 0 1.66667 1.86917 1.66667 4.16667V10.8333H5.00001C5.46084 10.8333 5.83334 11.2058 5.83334 11.6667C5.83334 12.1275 5.46084 12.5 5.00001 12.5H1.66667V15.8333C1.66667 18.1308 3.53584 20 5.83334 20H14.1667C16.4642 20 18.3333 18.1308 18.3333 15.8333V12.5H15C14.5392 12.5 14.1667 12.1275 14.1667 11.6667ZM11.6667 12.5H8.33334C7.87251 12.5 7.50001 12.1275 7.50001 11.6667C7.50001 11.2058 7.87251 10.8333 8.33334 10.8333H11.6667C12.1275 10.8333 12.5 11.2058 12.5 11.6667C12.5 12.1275 12.1275 12.5 11.6667 12.5ZM11.6667 5.83333V0.383333C12.4275 0.671667 13.1275 1.11583 13.7208 1.70833L16.6242 4.61333C17.2175 5.20583 17.6617 5.90583 17.95 6.66667H12.5C12.04 6.66667 11.6667 6.2925 11.6667 5.83333Z" fill="black"/>
</g>
<defs>
<clipPath id="clip0_686_207">
<rect width="20" height="20" fill="white"/>
</clipPath>
</defs>
</svg>
