<svg width="20" height="20" viewBox="0 0 20 20" fill="none" xmlns="http://www.w3.org/2000/svg">
<g id="Sidebar Iconset" clip-path="url(#clip0_686_218)">
<path id="Vector" d="M15 9.16667H0C0 6.86667 1.86667 5 4.16667 5H10.8333C13.1333 5 15 6.86667 15 9.16667ZM0 10.8333V15.8333C0 18.1333 1.86667 20 4.16667 20H10.8333C13.1333 20 15 18.1333 15 15.8333V10.8333H0ZM15.8333 0H9.16667C7.66667 0 6.35 0.8 5.61667 1.99167C5.25833 2.575 5.68333 3.33333 6.375 3.33333H10.8333C14.0583 3.33333 16.6667 5.94167 16.6667 9.16667V14.9167C18.5667 14.5333 20 12.85 20 10.8333V4.16667C20 1.86667 18.1333 0 15.8333 0Z" fill="black"/>
</g>
<defs>
<clipPath id="clip0_686_218">
<rect width="20" height="20" fill="white"/>
</clipPath>
</defs>
</svg>
