<svg width="20" height="20" viewBox="0 0 20 20" fill="none" xmlns="http://www.w3.org/2000/svg">
<path fill-rule="evenodd" clip-rule="evenodd" d="M2.12801 19.2157V18.8496C2.12801 18.7413 2.21577 18.6535 2.32408 18.6535H17.0778C17.1861 18.6535 17.2739 18.7413 17.2739 18.8496V19.2157C17.2739 19.324 17.1861 19.4118 17.0778 19.4118H2.32408C2.21577 19.4118 2.12801 19.324 2.12801 19.2157ZM3.10871 18.0261V15.1323C3.10871 15.0673 3.16138 15.0146 3.22636 15.0146H4.99746C5.06244 15.0146 5.1151 15.0673 5.1151 15.1323V18.0261H3.10871ZM6.83503 18.0261V13.1146C6.83503 13.0834 6.84742 13.0535 6.8695 13.0314C6.89154 13.0093 6.92146 12.9969 6.95267 12.9969H8.72377C8.75499 12.9969 8.78491 13.0093 8.80699 13.0314C8.82903 13.0535 8.84142 13.0834 8.84142 13.1146V18.0261H6.83503ZM10.5605 18.0261V11.0087C10.5605 10.9775 10.5729 10.9475 10.5949 10.9255C10.617 10.9034 10.6469 10.891 10.6781 10.891H12.4501C12.4813 10.891 12.5112 10.9034 12.5333 10.9255C12.5553 10.9475 12.5678 10.9775 12.5678 11.0087V18.0261H10.5605ZM14.2868 18.0261V9.37565C14.2868 9.31067 14.2341 9.258 14.1691 9.258H13.6164C13.5724 9.258 13.5321 9.23341 13.5119 9.19431C13.4917 9.15518 13.495 9.10804 13.5206 9.07216L15.1941 6.71863C15.2162 6.68761 15.2519 6.66918 15.29 6.66918C15.3281 6.66918 15.3638 6.68761 15.3859 6.71863L17.0595 9.07216C17.0849 9.10804 17.0883 9.15518 17.0681 9.19431C17.0479 9.23341 17.0076 9.258 16.9636 9.258H16.4109C16.3459 9.258 16.2932 9.31067 16.2932 9.37565V18.0261H14.2868ZM15.29 5.75227C13.8679 5.75227 12.708 4.59235 12.708 3.17023C12.708 1.74816 13.8679 0.588234 15.29 0.588234C16.7121 0.588234 17.872 1.74816 17.872 3.17023C17.872 4.59235 16.7121 5.75227 15.29 5.75227ZM14.9763 1.63067C14.9343 1.64196 14.8932 1.65549 14.8533 1.67121C14.4806 1.81784 14.2136 2.1407 14.2349 2.578C14.2618 3.14455 14.7644 3.39259 15.2422 3.47039C15.3577 3.48945 15.4818 3.51631 15.591 3.56592C15.6943 3.61282 15.7864 3.68172 15.8021 3.81219L15.8021 3.81255C15.8167 3.93286 15.7373 4.00533 15.6446 4.05078C15.5444 4.09988 15.4257 4.1227 15.3166 4.12518L15.3158 4.12521C15.0777 4.1311 14.8271 4.0331 14.7666 3.78957C14.7247 3.62153 14.5544 3.5191 14.3863 3.5609C14.2183 3.6027 14.1158 3.7731 14.1577 3.9411C14.2613 4.35753 14.5894 4.62208 14.9763 4.71525V4.80447C14.9763 4.97765 15.1169 5.1182 15.29 5.1182C15.4631 5.1182 15.6037 4.97765 15.6037 4.80447V4.71996C16.0674 4.61933 16.4918 4.28835 16.4251 3.73717C16.3556 3.15984 15.8293 2.93118 15.3436 2.85121L15.343 2.8511C15.237 2.83384 15.1245 2.80784 15.0273 2.76039C14.9421 2.71878 14.8669 2.65863 14.8617 2.54831L14.8617 2.54757C14.8544 2.40141 14.9584 2.30412 15.0829 2.2551C15.3153 2.16372 15.6402 2.21898 15.7613 2.50772C15.8284 2.66737 16.0124 2.74263 16.172 2.67561C16.3317 2.60863 16.4069 2.42459 16.3399 2.26494C16.1922 1.91298 15.9118 1.70721 15.6037 1.62729V1.53686C15.6037 1.36372 15.4631 1.22314 15.29 1.22314C15.1169 1.22314 14.9763 1.36372 14.9763 1.53686V1.63067ZM11.6327 6.76223C11.3898 6.75521 11.1838 6.56831 11.1595 6.32012C11.133 6.05086 11.3302 5.81082 11.5994 5.78435L12.6601 5.68019C12.7905 5.66737 12.9206 5.70733 13.0214 5.79114C13.1222 5.8749 13.1852 5.99557 13.1964 6.12616L13.2875 7.188C13.3106 7.45757 13.1105 7.69518 12.8409 7.71831C12.6282 7.73655 12.4354 7.6158 12.3522 7.43165C9.73832 10.6491 6.69381 12.6674 3.21973 13.4753C2.9562 13.5365 2.69252 13.3723 2.63126 13.1088C2.56997 12.8453 2.73416 12.5816 2.99765 12.5203C6.28918 11.7549 9.16114 9.82239 11.6327 6.76223Z" fill="black"/>
</svg>
