<svg width="20" height="20" viewBox="0 0 20 20" fill="none" xmlns="http://www.w3.org/2000/svg">
<g clip-path="url(#clip0_686_188)">
<path d="M14.8575 8.96834C14.74 8.96834 14.6225 8.93084 14.5242 8.8575C14.335 8.71584 14.2567 8.47084 14.3275 8.24584L14.85 6.57L13.5292 5.495C13.3517 5.34417 13.2867 5.09834 13.3675 4.88C13.4475 4.66167 13.6558 4.51584 13.8892 4.51584H15.5567L16.1467 2.86C16.2275 2.6425 16.435 2.49834 16.6675 2.49834C16.9 2.49834 17.1075 2.6425 17.1883 2.86L17.7783 4.51584H19.4458C19.6792 4.51584 19.8875 4.66167 19.9675 4.88084C20.0475 5.1 19.9817 5.34584 19.8033 5.49667L18.4892 6.5675L19.0325 8.22334C19.1067 8.4475 19.0317 8.69417 18.8442 8.83834C18.6567 8.9825 18.3992 8.9925 18.2017 8.86417L16.6717 7.8675L15.1675 8.87417C15.0742 8.93667 14.965 8.96834 14.8575 8.96834ZM8.19083 6.46834C8.07333 6.46834 7.95583 6.43084 7.8575 6.3575C7.66833 6.21584 7.59 5.97084 7.66083 5.74584L8.18333 4.07L6.8625 2.995C6.685 2.84417 6.62 2.59834 6.70083 2.38C6.78083 2.16167 6.98917 2.01584 7.2225 2.01584H8.89L9.48 0.360003C9.56083 0.142503 9.76833 -0.00166321 10.0008 -0.00166321C10.2333 -0.00166321 10.4408 0.142503 10.5217 0.360003L11.1117 2.01584H12.7792C13.0125 2.01584 13.2208 2.16167 13.3008 2.38084C13.3808 2.6 13.315 2.84584 13.1367 2.99667L11.8225 4.0675L12.3658 5.72334C12.44 5.9475 12.365 6.19417 12.1775 6.33834C11.99 6.4825 11.7325 6.4925 11.535 6.36417L10.005 5.3675L8.50083 6.37417C8.4075 6.43667 8.29833 6.46834 8.19083 6.46834ZM1.52417 8.96834C1.40667 8.96834 1.28917 8.93084 1.19083 8.8575C1.00167 8.71584 0.923333 8.47084 0.994166 8.24584L1.51667 6.57L0.195833 5.49584C0.0183327 5.345 -0.0466673 5.09917 0.034166 4.88084C0.114166 4.6625 0.322499 4.51667 0.555833 4.51667H2.22333L2.81333 2.86084C2.89417 2.64334 3.10167 2.49917 3.33417 2.49917C3.56667 2.49917 3.77417 2.64334 3.855 2.86084L4.445 4.51667H6.1125C6.34583 4.51667 6.55417 4.6625 6.63417 4.88167C6.71417 5.10084 6.64833 5.34667 6.47 5.4975L5.15583 6.56834L5.69917 8.22417C5.77333 8.44834 5.69833 8.695 5.51083 8.83917C5.32333 8.98334 5.06583 8.99334 4.86833 8.865L3.33833 7.86834L1.83417 8.875C1.74083 8.9375 1.6325 8.96917 1.525 8.96917L1.52417 8.96834ZM14.1658 11.6667H10.68L11.1633 8.94584C11.2108 8.6675 11.1875 8.51334 11.1692 8.44667C11.0125 7.87167 10.5442 7.5 9.97583 7.5C9.79833 7.5 9.61917 7.53667 9.4425 7.61C9.23083 7.6975 9.02333 7.91584 8.87417 8.20917L7.04667 11.6667H5.83333C4.4525 11.6667 3.33333 12.7858 3.33333 14.1667V17.5C3.33333 18.8808 4.4525 20 5.83333 20V14.1667C5.83333 13.7067 6.20667 13.3333 6.66667 13.3333C7.12667 13.3333 7.5 13.7067 7.5 14.1667V20H12.8158C14.405 20 15.7725 18.8783 16.0842 17.32L16.6167 14.6567C16.9258 13.11 15.7425 11.6667 14.165 11.6667H14.1658Z" fill="black"/>
</g>
<defs>
<clipPath id="clip0_686_188">
<rect width="20" height="20" fill="white"/>
</clipPath>
</defs>
</svg>
