<svg width="20" height="20" viewBox="0 0 20 20" fill="none" xmlns="http://www.w3.org/2000/svg">
<path d="M1.87497 10C1.78639 4.60605 7.34126 0.556277 12.4476 2.25014C12.5262 2.27339 12.6108 2.26485 12.6831 2.22634C12.7555 2.18783 12.8099 2.12244 12.8345 2.04425C12.8591 1.96606 12.8521 1.88132 12.8148 1.80829C12.7776 1.73525 12.7132 1.67975 12.6355 1.65375C5.79256 -0.611764 -0.890028 6.47969 1.84383 13.1745C1.87507 13.2501 1.93471 13.3104 2.00995 13.3426C2.08519 13.3747 2.17001 13.376 2.24622 13.3463C2.32243 13.3165 2.38394 13.2581 2.41755 13.1835C2.45115 13.1089 2.45417 13.0242 2.42596 12.9474C2.06019 12.0078 1.87332 11.0082 1.87497 10Z" fill="black"/>
<path d="M4.09379 15.5719L5.05316 15.5281C5.13527 15.5233 5.2122 15.4864 5.26728 15.4253C5.32237 15.3642 5.35118 15.2839 5.34748 15.2017C5.34378 15.1196 5.30787 15.0422 5.24753 14.9863C5.18718 14.9304 5.10725 14.9005 5.02504 14.9031L3.40316 14.9781C3.32671 14.9849 3.25509 15.0184 3.20082 15.0727C3.14655 15.1269 3.11308 15.1986 3.10629 15.275L3.03129 16.8969C3.02868 16.9791 3.05855 17.059 3.11444 17.1194C3.17033 17.1797 3.24774 17.2156 3.32991 17.2193C3.41208 17.223 3.4924 17.1942 3.55348 17.1391C3.61457 17.084 3.6515 17.0071 3.65629 16.925L3.69691 16.0406C4.08233 16.4787 4.5236 16.8643 5.00941 17.1875C5.04306 17.2111 5.08103 17.2278 5.12115 17.2368C5.16127 17.2457 5.20276 17.2466 5.24324 17.2395C5.28372 17.2324 5.3224 17.2174 5.35708 17.1953C5.39176 17.1733 5.42175 17.1446 5.44535 17.1109C5.46894 17.0773 5.48568 17.0393 5.49461 16.9992C5.50353 16.9591 5.50446 16.9176 5.49735 16.8771C5.49024 16.8366 5.47523 16.7979 5.45317 16.7633C5.43111 16.7286 5.40244 16.6986 5.36879 16.675C4.91554 16.3413 4.48922 15.9724 4.09379 15.5719Z" fill="black"/>
<path d="M18.0711 6.61531C18.0384 6.53994 17.9773 6.48049 17.901 6.44986C17.8247 6.41923 17.7395 6.41988 17.6637 6.45168C17.5879 6.48347 17.5277 6.54384 17.4961 6.6197C17.4645 6.69557 17.4641 6.78083 17.4949 6.85701C20.2168 13.3042 13.8838 20.009 7.29208 17.6629C7.21434 17.6368 7.12945 17.6423 7.05572 17.6782C6.982 17.7141 6.92535 17.7776 6.89801 17.8549C6.87066 17.9322 6.87481 18.0172 6.90956 18.0915C6.9443 18.1658 7.00686 18.2234 7.08373 18.252C14.1841 20.7801 21.003 13.5554 18.0711 6.61531Z" fill="black"/>
<path d="M14.3282 3.12187C14.8622 3.48847 15.3593 3.90605 15.8125 4.36875L14.8844 4.40937C14.8038 4.41469 14.7284 4.45097 14.674 4.51061C14.6195 4.57025 14.5902 4.64864 14.5923 4.72937C14.5943 4.81011 14.6274 4.88693 14.6848 4.94378C14.7422 5.00063 14.8193 5.03309 14.9 5.03437C14.9094 5.0375 16.525 4.95937 16.5375 4.95937C16.614 4.95257 16.6856 4.91911 16.7399 4.86484C16.7942 4.81057 16.8276 4.73895 16.8344 4.6625L16.9094 3.04062C16.9117 2.95861 16.8817 2.87898 16.8258 2.8189C16.7699 2.75881 16.6927 2.72308 16.6107 2.71939C16.5288 2.7157 16.4487 2.74435 16.3876 2.79918C16.3266 2.854 16.2895 2.93061 16.2844 3.0125L16.2438 3.89687C16.232 3.86725 16.2139 3.84058 16.1907 3.81875C15.7286 3.35343 15.2148 2.94244 14.6594 2.59375C14.6248 2.57152 14.5862 2.55638 14.5457 2.54922C14.5052 2.54206 14.4637 2.54301 14.4235 2.55202C14.3834 2.56103 14.3455 2.57793 14.312 2.60172C14.2784 2.62551 14.2499 2.65573 14.2282 2.69062C14.1845 2.76114 14.1705 2.84607 14.1893 2.92686C14.208 3.00766 14.2579 3.07776 14.3282 3.12187Z" fill="black"/>
<path d="M7.54377 15.1156L8.49064 14.4531C8.55026 14.4115 8.61785 14.3826 8.68917 14.3684C8.76049 14.3541 8.83399 14.3548 8.90503 14.3703C8.97608 14.3859 9.04313 14.416 9.10197 14.4588C9.1608 14.5015 9.21015 14.556 9.24689 14.6188L9.86564 15.6781C9.89382 15.7266 9.93447 15.7667 9.98339 15.7942C10.0323 15.8217 10.0877 15.8356 10.1438 15.8344C11.172 15.8099 12.1756 15.5145 13.0531 14.9781C13.1022 14.9474 13.1419 14.9037 13.1678 14.8519C13.1937 14.8001 13.2049 14.7421 13.2 14.6844L13.1 13.5344C13.0946 13.4617 13.1041 13.3886 13.128 13.3198C13.1518 13.2509 13.1894 13.1876 13.2386 13.1337C13.2877 13.0799 13.3474 13.0367 13.4138 13.0067C13.4803 12.9767 13.5521 12.9606 13.625 12.9594L14.8563 12.9563C14.9119 12.9558 14.9665 12.9405 15.0143 12.9119C15.0621 12.8834 15.1014 12.8426 15.1281 12.7938C15.5941 11.9363 15.838 10.9759 15.8375 10C15.8463 9.83584 15.8277 9.64052 15.6531 9.56875L14.6125 9.08125C14.5463 9.05041 14.4872 9.00615 14.439 8.95127C14.3908 8.89639 14.3546 8.8321 14.3325 8.76246C14.3105 8.69282 14.3032 8.61937 14.311 8.54675C14.3189 8.47413 14.3417 8.40394 14.3781 8.34063L14.9875 7.275C15.015 7.22613 15.0289 7.17082 15.0278 7.11478C15.0267 7.05874 15.0106 7.00401 14.9813 6.95625C14.446 6.07873 13.6881 5.35851 12.7844 4.86875C12.7335 4.8412 12.676 4.8281 12.6182 4.83085C12.5603 4.8336 12.5043 4.85211 12.4563 4.88438L11.5094 5.54688C11.4498 5.58853 11.3822 5.61739 11.3109 5.63164C11.2395 5.64588 11.166 5.6452 11.095 5.62964C11.024 5.61408 10.9569 5.58397 10.8981 5.54122C10.8392 5.49846 10.7899 5.44399 10.7531 5.38122L10.1344 4.32188C10.1076 4.27219 10.0672 4.23112 10.018 4.20347C9.96873 4.17581 9.91266 4.16269 9.85627 4.16563C8.82803 4.1901 7.82446 4.48546 6.94689 5.02188C6.89779 5.05262 6.85811 5.0963 6.8322 5.14812C6.80629 5.19994 6.79515 5.2579 6.80002 5.31563L6.90002 6.46563C6.90541 6.53833 6.8959 6.61136 6.87207 6.68025C6.84825 6.74915 6.8106 6.81245 6.76145 6.86628C6.7123 6.92012 6.65267 6.96335 6.58622 6.99333C6.51977 7.02331 6.4479 7.0394 6.37502 7.04063L5.14377 7.04375C5.08809 7.04421 5.03355 7.05951 4.98576 7.08808C4.93797 7.11664 4.89866 7.15744 4.87189 7.20625C4.40589 8.06367 4.16201 9.02413 4.16252 10C4.15377 10.1642 4.17232 10.3594 4.34689 10.4312L5.38752 10.9188C5.45372 10.9496 5.5128 10.9939 5.561 11.0487C5.6092 11.1036 5.64546 11.1679 5.6675 11.2375C5.68954 11.3072 5.69686 11.3806 5.68901 11.4533C5.68116 11.5259 5.6583 11.5961 5.62189 11.6594L5.01252 12.725C4.98507 12.7739 4.97118 12.8292 4.97228 12.8852C4.97338 12.9413 4.98943 12.996 5.01877 13.0438C5.55399 13.9213 6.31195 14.6415 7.21564 15.1313C7.26634 15.1595 7.32394 15.1731 7.38194 15.1703C7.43993 15.1676 7.49599 15.1486 7.54377 15.1156ZM12.625 10C12.625 10.6962 12.3484 11.3639 11.8562 11.8562C11.3639 12.3485 10.6962 12.625 10 12.625C9.30381 12.625 8.63614 12.3484 8.14386 11.8562C7.65157 11.3639 7.37501 10.6962 7.37502 10C7.52002 6.51772 12.4806 6.51873 12.625 10Z" fill="black"/>
<path d="M12 9.99996C11.9064 7.35266 8.09299 7.35376 8 10C8.09347 12.6471 11.9069 12.6464 12 9.99996Z" fill="black"/>
</svg>
