<svg width="18" height="20" viewBox="0 0 18 20" fill="none" xmlns="http://www.w3.org/2000/svg">
<g id="Group">
<path id="Vector" d="M0.339185 15C1.02848 16.1963 2.55711 16.6073 3.75344 15.918C3.75426 15.9176 3.75504 15.9171 3.75586 15.9166L4.12668 15.7025C4.82668 16.3014 5.63129 16.7658 6.50001 17.0725V17.5C6.50001 18.8807 7.6193 20 9 20C10.3807 20 11.5 18.8807 11.5 17.5V17.0725C12.3688 16.7654 13.1735 16.3004 13.8733 15.7008L14.2458 15.9158C15.4424 16.6062 16.9722 16.1958 17.6625 14.9991C18.3529 13.8025 17.9425 12.2728 16.7458 11.5825L16.3758 11.3691C16.5424 10.4629 16.5424 9.53379 16.3758 8.62746L16.7458 8.41414C17.9424 7.72379 18.3529 6.1941 17.6625 4.99746C16.9722 3.80086 15.4425 3.39043 14.2458 4.08078L13.875 4.29496C13.1743 3.6968 12.3691 3.2332 11.5 2.9275V2.5C11.5 1.1193 10.3807 0 9 0C7.6193 0 6.50001 1.1193 6.50001 2.5V2.9275C5.63118 3.23465 4.82653 3.69965 4.12668 4.29918L3.75418 4.08336C2.55754 3.39297 1.02786 3.8034 0.337505 5C-0.352846 6.1966 0.0575443 7.72633 1.25418 8.41668L1.62418 8.63C1.45762 9.53629 1.45762 10.4654 1.62418 11.3717L1.25418 11.585C0.0608647 12.2772 -0.348198 13.8039 0.339185 15ZM9 6.66668C10.8409 6.66668 12.3333 8.15906 12.3333 10C12.3333 11.8409 10.8409 13.3333 9 13.3333C7.15907 13.3333 5.66669 11.8409 5.66669 10C5.66669 8.15906 7.15907 6.66668 9 6.66668Z" fill="black"/>
</g>
</svg>
