<svg width="20" height="20" viewBox="0 0 20 20" fill="none" xmlns="http://www.w3.org/2000/svg">
<g clip-path="url(#clip0_686_157)">
<path d="M8.30167 6.66667L6.36917 0H8.66667C9.11588 -1.47805e-06 9.5568 0.121036 9.94306 0.350386C10.3293 0.579735 10.6466 0.908922 10.8617 1.30333L13.5575 6.66667H8.30167ZM17.5 8.33333H4.15583L2 6.17583C1.8019 5.96708 1.53364 5.8389 1.24677 5.81595C0.959897 5.793 0.674665 5.87688 0.445895 6.05148C0.217124 6.22608 0.0609601 6.47908 0.00741769 6.76184C-0.0461247 7.04461 0.00673314 7.33718 0.155832 7.58333L2.83917 12.5H8.79583L5.84916 20H8.40167C8.84236 20.0018 9.27553 19.8858 9.65643 19.6642C10.0373 19.4425 10.3521 19.1232 10.5683 18.7392L14.3908 12.5H20V10.8333C20 10.1703 19.7366 9.53441 19.2678 9.06557C18.7989 8.59673 18.163 8.33333 17.5 8.33333Z" fill="black"/>
</g>
<defs>
<clipPath id="clip0_686_157">
<rect width="20" height="20" fill="white"/>
</clipPath>
</defs>
</svg>
